<svg width="79" height="79" viewBox="0 0 79 79" fill="none" xmlns="http://www.w3.org/2000/svg">
<rect width="79" height="79" fill="#888888"/>
<g clip-path="url(#clip0)">
<rect x="-141" y="-2328" width="1440" height="2476" fill="white"/>
<path fill-rule="evenodd" clip-rule="evenodd" d="M39.6616 0.211598C61.2692 0.211598 78.7856 17.7282 78.7856 39.336C78.7856 60.9432 61.2692 78.4597 39.6616 78.4597C18.0541 78.4597 0.537542 60.9432 0.537542 39.336C0.537542 17.7282 18.0541 0.211598 39.6616 0.211598Z" fill="white"/>
<path fill-rule="evenodd" clip-rule="evenodd" d="M39.6616 0.211598C61.2692 0.211598 78.7856 17.7282 78.7856 39.336C78.7856 60.9432 61.2692 78.4597 39.6616 78.4597C18.0541 78.4597 0.537542 60.9432 0.537542 39.336C0.537542 17.7282 18.0541 0.211598 39.6616 0.211598Z" fill="#E1E1E1"/>
<path d="M42.138 43.51C43.094 43.201 44.318 45.55 45.621 46.449C46.599 47.13 47.348 46.983 47.348 46.983L50.821 46.933C50.821 46.933 52.636 46.821 51.778 45.379C51.707 45.259 51.275 44.31 49.193 42.357C47.016 40.314 47.311 40.645 49.932 37.113C51.529 34.96 52.168 33.645 51.968 33.085C51.776 32.546 50.603 32.686 50.603 32.686L46.69 32.713C46.309 32.714 45.986 32.832 45.839 33.228C45.836 33.232 45.218 34.894 44.394 36.307C42.653 39.296 41.958 39.455 41.67 39.268C41.009 38.835 41.176 37.531 41.176 36.604C41.176 33.707 41.608 32.499 40.33 32.187C39.903 32.083 39.591 32.015 38.502 32.005C37.11 31.984 35.928 32.005 35.258 32.334C34.813 32.557 34.472 33.046 34.679 33.074C34.939 33.109 35.522 33.234 35.834 33.66C36.235 34.212 36.223 35.449 36.223 35.449C36.223 35.449 36.452 38.86 35.683 39.283C35.155 39.573 34.433 38.981 32.88 36.267C32.087 34.879 31.488 33.345 31.488 33.345C31.488 33.345 31.372 33.06 31.162 32.904C30.912 32.719 30.562 32.66 30.562 32.66L26.848 32.684C26.848 32.684 26.29 32.7 26.085 32.946C25.903 33.164 26.07 33.614 26.07 33.614C26.07 33.614 28.979 40.495 32.273 43.961C35.293 47.143 38.725 46.932 38.725 46.932H40.28C40.28 46.932 40.749 46.878 40.989 46.62C41.213 46.38 41.203 45.929 41.203 45.929C41.203 45.929 41.172 43.82 42.138 43.51Z" fill="white"/>
</g>
<defs>
<clipPath id="clip0">
<rect x="-141" y="-2328" width="1440" height="2476" fill="white"/>
</clipPath>
</defs>
</svg>
