<svg width="79" height="79" viewBox="0 0 79 79" fill="none" xmlns="http://www.w3.org/2000/svg">
<rect width="79" height="79" fill="#888888"/>
<g clip-path="url(#clip0)">
<rect x="-321" y="-2328" width="1440" height="2476" fill="white"/>
<path fill-rule="evenodd" clip-rule="evenodd" d="M39.6617 0.211598C61.2692 0.211598 78.7856 17.7282 78.7856 39.336C78.7856 60.9432 61.2692 78.4597 39.6617 78.4597C18.054 78.4597 0.537542 60.9432 0.537542 39.336C0.537542 17.7282 18.054 0.211598 39.6617 0.211598Z" fill="white"/>
<path fill-rule="evenodd" clip-rule="evenodd" d="M39.6617 0.211598C61.2692 0.211598 78.7856 17.7282 78.7856 39.336C78.7856 60.9432 61.2692 78.4597 39.6617 78.4597C18.054 78.4597 0.537542 60.9432 0.537542 39.336C0.537542 17.7282 18.054 0.211598 39.6617 0.211598Z" fill="#E1E1E1"/>
<path fill-rule="evenodd" clip-rule="evenodd" d="M32 29H47C48.65 29 50 30.35 50 32V47C50 48.65 48.65 50 47 50H32C30.35 50 29 48.65 29 47V32C29 30.35 30.35 29 32 29ZM43 39.5C43 37.57 41.43 36 39.5 36C37.57 36 36 37.57 36 39.5C36 41.43 37.57 43 39.5 43C41.43 43 43 41.43 43 39.5ZM32 47V38H33.181C33.0626 38.4913 33.0019 38.9947 33 39.5C33 43.0899 35.9101 46 39.5 46C43.0899 46 46 43.0899 46 39.5C45.9986 38.9946 45.9379 38.4912 45.819 38H47V47H32ZM43 36H47V32H43V36Z" fill="white"/>
</g>
<defs>
<clipPath id="clip0">
<rect x="-321" y="-2328" width="1440" height="2476" fill="white"/>
</clipPath>
</defs>
</svg>
